<svg xmlns="http://www.w3.org/2000/svg" class="svg-logo" width="2400" height="2400" viewBox="0 0 630 430" style="height: auto;"><rect width="630" height="630" y="-100" rx="0" ry="0" fill="transparent" fill-opacity="0"></rect><g data-element="wrapper" transform="translate(-47.250000000003126 -79.97500000000252) scale(1.15000000000001)"><g data-element="container" transform="translate(238.8095238095238 138.8093980034843) scale(0.25396825396825395)"><g ><path id="frame_x5F_1_110_" d="M491.519,382.366C530.781,368.687,569.523,340.608,600,300
	c-30.477-40.608-69.219-68.687-108.481-82.366c-3.304-6.401-6.013-13.109-9.628-19.341c39.062,9.268,79.146,31.744,112.889,67.017
	c-3.193-28.457-11.168-56.214-22.019-82.67c-40.996-23.305-84.157-33.458-123.18-32.222c1.238-39.021-8.916-82.184-32.22-123.18
	c-26.456-10.85-54.212-18.824-82.671-22.019c35.273,33.743,57.749,73.829,67.018,112.888c-6.231-3.615-12.941-6.322-19.342-9.625
	C368.687,69.219,340.61,30.477,300-0.001c-40.608,30.478-68.687,69.22-82.366,108.483c-6.399,3.303-13.108,6.011-19.34,9.625
	c9.269-39.059,31.745-79.146,67.016-112.888c-28.456,3.194-56.212,11.169-82.668,22.019
	c-23.304,40.996-33.458,84.159-32.223,123.181c-39.02-1.237-82.184,8.917-123.18,32.221C16.391,209.096,8.417,236.853,5.22,265.31
	c33.743-35.272,73.83-57.749,112.889-67.017c-3.615,6.232-6.321,12.94-9.625,19.341C69.219,231.313,30.477,259.392,0,300
	c30.477,40.608,69.219,68.687,108.481,82.366c3.304,6.401,6.01,13.109,9.625,19.341C79.047,392.439,38.96,369.962,5.218,334.69
	c3.196,28.457,11.171,56.214,22.019,82.671c40.996,23.304,84.16,33.458,123.183,32.221c-1.238,39.021,8.916,82.184,32.22,123.18
	c26.456,10.85,54.212,18.824,82.668,22.019c-35.27-33.742-57.746-73.829-67.016-112.888c6.231,3.615,12.941,6.322,19.34,9.626
	c13.679,39.263,41.759,78.004,82.366,108.483c40.611-30.478,68.687-69.219,82.366-108.483c6.402-3.304,13.111-6.011,19.342-9.626
	c-9.269,39.06-31.745,79.146-67.018,112.888c28.459-3.194,56.215-11.168,82.671-22.019c23.304-40.996,33.458-84.159,32.22-123.181
	c39.023,1.237,82.187-8.917,123.18-32.22c10.851-26.457,18.825-54.213,22.019-82.671c-33.742,35.272-73.827,57.749-112.889,67.017
	C485.506,395.475,488.215,388.767,491.519,382.366z M571.406,376.671l-1.857,7.087l-2.473,6.895l-5.041,13.761
	c-42.482,24.293-87.425,33.697-127.196,30.425c3.271,39.771-6.133,84.713-30.427,127.196l-13.76,5.042l-6.895,2.473l-7.086,1.857
	c27.634-38.423,41.63-80.613,43.203-119.438l-11.192,8.415l-11.951,7.266c-3.857,2.658-8.163,4.476-12.358,6.496
	c-4.249,1.887-8.235,4.412-12.726,5.721c-12.044,35.522-36.35,70.699-71.65,99.285c-35.3-28.587-59.606-63.763-71.647-99.285
	c-4.491-1.309-8.477-3.834-12.725-5.721c-4.195-2.021-8.501-3.838-12.358-6.496l-11.951-7.266l-11.192-8.415
	c1.573,38.826,15.569,81.015,43.203,119.438l-7.086-1.857l-6.895-2.473l-13.76-5.042c-24.294-42.483-33.698-87.424-30.426-127.195
	c-39.773,3.272-84.714-6.133-127.196-30.426l-5.041-13.761l-2.473-6.895l-1.857-7.087c38.422,27.635,80.611,41.631,119.437,43.204
	l-8.414-11.193l-7.266-11.951c-2.658-3.858-4.476-8.163-6.497-12.357c-1.887-4.25-4.413-8.236-5.72-12.726
	C84.609,359.607,49.434,335.3,20.847,300c28.588-35.3,63.762-59.606,99.287-71.649c1.307-4.49,3.833-8.476,5.72-12.726
	c2.021-4.193,3.839-8.499,6.497-12.357l7.266-11.951l8.414-11.193c-38.826,1.573-81.015,15.569-119.437,43.204l1.857-7.087
	l2.473-6.895l5.041-13.761c42.482-24.293,87.422-33.697,127.196-30.425c-3.271-39.771,6.132-84.712,30.426-127.196l13.76-5.041
	l6.895-2.473l7.086-1.857c-27.634,38.423-41.63,80.613-43.203,119.438l11.192-8.415l11.951-7.266
	c3.857-2.658,8.163-4.475,12.358-6.497c4.249-1.887,8.234-4.412,12.725-5.721c12.041-35.522,36.347-70.699,71.647-99.285
	c35.3,28.587,59.606,63.764,71.65,99.285c4.491,1.309,8.477,3.834,12.726,5.721c4.192,2.021,8.501,3.838,12.358,6.497l11.951,7.266
	l11.192,8.415c-1.573-38.826-15.569-81.014-43.203-119.438l7.086,1.857l6.895,2.473l13.76,5.041
	c24.294,42.483,33.698,87.424,30.427,127.195c39.77-3.272,84.713,6.133,127.196,30.426l5.041,13.761l2.473,6.895l1.857,7.087
	c-38.422-27.635-80.611-41.631-119.437-43.204l8.414,11.193l7.266,11.951c2.658,3.857,4.476,8.163,6.497,12.356
	c1.887,4.25,4.41,8.236,5.72,12.726c35.522,12.042,70.699,36.349,99.287,71.649c-28.588,35.3-63.765,59.607-99.287,71.649
	c-1.31,4.49-3.833,8.476-5.72,12.726c-2.021,4.193-3.839,8.499-6.497,12.357l-7.266,11.951l-8.414,11.193
	C490.795,418.302,532.984,404.306,571.406,376.671z M444.964,559.055c23.849-13.294,45.377-30.238,65.009-49.081
	c18.843-19.634,35.788-41.162,49.081-65.012c-31.336,13.748-63.487,20.15-92.939,21.152
	C465.111,495.566,458.712,527.718,444.964,559.055z M478.548,500.828c0.966-6.825,1.731-13.487,2.308-19.971
	c6.485-0.579,13.147-1.344,19.97-2.309c6.814-0.974,13.928-2.033,20.553-3.832c-3.169,4.531-6.985,8.522-10.677,12.617
	l-11.156,12.216l-12.214,11.154c-4.096,3.694-8.085,7.509-12.618,10.676C476.515,514.755,477.573,507.642,478.548,500.828z
	 M326.616,491.651l-6.578,1.064l-6.683,0.296l-13.357,0.734l-13.354-0.734l-6.683-0.296l-6.578-1.064
	c-4.38-0.728-8.8-1.246-13.168-2.028l-12.875-3.354c2.9,6.051,6.13,12.241,9.712,18.535c3.66,5.914,7.726,11.627,12.11,17.572
	c2.195,2.953,4.479,5.922,6.85,8.904c2.398,2.74,4.892,5.418,7.469,8.143c5.155,5.432,10.659,10.894,16.517,16.348
	c5.857-5.455,11.365-10.916,16.52-16.348c2.577-2.725,5.068-5.404,7.469-8.143c2.371-2.982,4.656-5.951,6.85-8.904
	c4.383-5.945,8.447-11.658,12.11-17.572c3.579-6.293,6.811-12.483,9.712-18.535l-12.875,3.354
	C335.415,490.404,330.996,490.923,326.616,491.651z M299.999,534.923c-9.161-9.464-17.378-18.2-24.438-28.007
	c8.079,1.054,16.299,0.921,24.438,1.572c8.142-0.652,16.358-0.518,24.44-1.572C317.379,516.722,309.16,525.459,299.999,534.923z
	 M40.945,444.963c13.294,23.85,30.238,45.377,49.078,65.012c19.635,18.842,41.164,35.787,65.012,49.081
	c-13.748-31.337-20.15-63.489-21.151-92.939C104.433,465.113,72.281,458.711,40.945,444.963z M112.667,510.703l-12.217-11.154
	l-11.153-12.216c-3.696-4.095-7.511-8.086-10.677-12.617c6.623,1.8,13.736,2.858,20.551,3.832c6.826,0.965,13.488,1.73,19.973,2.31
	c0.577,6.484,1.342,13.147,2.308,19.971c0.975,6.814,2.033,13.927,3.833,20.551C120.752,518.212,116.761,514.397,112.667,510.703z
	 M155.036,40.945c-23.848,13.294-45.377,30.238-65.012,49.081c-18.84,19.634-35.785,41.162-49.078,65.012
	c31.335-13.748,63.487-20.149,92.939-21.152C134.886,104.434,141.288,72.282,155.036,40.945z M121.452,99.172
	c-0.966,6.825-1.731,13.487-2.311,19.972c-6.482,0.579-13.144,1.344-19.97,2.309c-6.814,0.974-13.928,2.033-20.551,3.832
	c3.166-4.531,6.982-8.523,10.677-12.618l11.153-12.216l12.217-11.154c4.093-3.694,8.085-7.509,12.618-10.676
	C123.485,85.245,122.427,92.357,121.452,99.172z M107.285,279.963l1.064-6.58c0.727-4.379,1.247-8.8,2.027-13.167l3.355-12.876
	c-6.052,2.9-12.241,6.131-18.535,9.712c-5.914,3.661-11.628,7.727-17.572,12.11c-2.954,2.195-5.923,4.479-8.904,6.851
	c-2.739,2.398-5.418,4.892-8.142,7.468c-5.433,5.155-10.896,10.661-16.349,16.519c5.454,5.858,10.917,11.364,16.349,16.519
	c2.724,2.576,5.403,5.07,8.142,7.468c2.981,2.372,5.95,4.655,8.904,6.851c5.944,4.383,11.658,8.449,17.572,12.11
	c6.294,3.58,12.483,6.812,18.535,9.711l-3.355-12.876c-0.78-4.367-1.301-8.787-2.027-13.167l-1.064-6.58l-0.296-6.681L106.257,300
	l0.733-13.356L107.285,279.963z M93.083,324.439c-9.804-7.06-18.541-15.278-28.005-24.439c9.463-9.162,18.2-17.379,28.005-24.439
	C92.03,283.642,92.162,291.86,91.51,300C92.162,308.14,92.03,316.358,93.083,324.439z M559.055,155.037
	c-13.294-23.85-30.238-45.377-49.081-65.012c-19.633-18.842-41.161-35.787-65.009-49.081c13.748,31.337,20.147,63.489,21.152,92.939
	C495.564,134.887,527.719,141.289,559.055,155.037z M487.333,89.297l12.214,11.154l11.156,12.216
	c3.693,4.095,7.508,8.086,10.677,12.618c-6.626-1.8-13.739-2.858-20.553-3.833c-6.823-0.965-13.485-1.731-19.97-2.31
	c-0.58-6.484-1.342-13.146-2.308-19.971c-0.975-6.815-2.033-13.927-3.833-20.551C479.248,81.788,483.236,85.603,487.333,89.297z
	 M492.715,320.037l-1.065,6.58c-0.727,4.379-1.247,8.8-2.027,13.167l-3.355,12.876c6.052-2.899,12.241-6.131,18.535-9.711
	c5.914-3.661,11.625-7.727,17.572-12.11c2.951-2.195,5.92-4.479,8.904-6.851c2.739-2.398,5.415-4.892,8.142-7.468
	c5.433-5.155,10.893-10.661,16.349-16.519c-5.457-5.858-10.917-11.364-16.349-16.519c-2.727-2.576-5.403-5.07-8.142-7.468
	c-2.984-2.372-5.953-4.655-8.904-6.851c-5.947-4.383-11.658-8.449-17.572-12.11c-6.294-3.58-12.483-6.812-18.535-9.712l3.355,12.876
	c0.78,4.367,1.301,8.787,2.027,13.167l1.065,6.58l0.296,6.681L493.743,300l-0.733,13.356L492.715,320.037z M506.917,275.561
	c9.804,7.06,18.541,15.278,28.005,24.439c-9.463,9.162-18.2,17.379-28.005,24.439c1.053-8.081,0.918-16.299,1.57-24.439
	C507.835,291.86,507.97,283.642,506.917,275.561z M330.838,77.625c-2.195-2.953-4.479-5.923-6.85-8.904
	c-2.401-2.74-4.892-5.418-7.469-8.143c-5.155-5.432-10.662-10.894-16.52-16.348c-5.858,5.455-11.362,10.916-16.517,16.348
	c-2.577,2.725-5.071,5.404-7.469,8.143c-2.371,2.981-4.656,5.951-6.85,8.904c-4.383,5.945-8.45,11.658-12.11,17.572
	c-3.582,6.293-6.811,12.483-9.712,18.534l12.875-3.354c4.368-0.782,8.788-1.3,13.168-2.028l6.578-1.064l6.683-0.296l13.354-0.734
	l13.357,0.734l6.683,0.296l6.578,1.064c4.38,0.728,8.8,1.246,13.168,2.028l12.875,3.354c-2.9-6.051-6.133-12.241-9.712-18.534
	C339.284,89.283,335.221,83.57,330.838,77.625z M299.999,91.511c-8.139,0.652-16.358,0.518-24.438,1.572
	c7.06-9.806,15.276-18.543,24.438-28.007c9.161,9.464,17.381,18.2,24.44,28.007C316.357,92.03,308.14,92.163,299.999,91.511z" fill="#000000" fill-opacity="1"></path></g></g><g ><g data-element="icon" transform="scale(0.13333367241839705) translate(2062.4934309026285 1312.4951555728912)"><path id="color_x5F_1_8_" d="M485.226,175.128c50.747-2.873,91.052,41.824,108.512,88.212    c-3.797-65.967-40.489-129.228-95.864-165.281c-28.189-18.353-61.551-29.953-95.148-28.287    c-33.595,1.666-67.153,17.735-85.987,45.605c-18.835,27.869-17.341,73.413,2.554,100.536c-35.587,3.343-72.379-9.559-98.088-34.391    c-25.707-24.833-39.872-61.158-37.763-96.839c12.3-5.632,27.31-11.951,36.189-22.158c8.879-10.208,12.874-25.981,5.682-37.44    c-6.112-9.741-19.189-13.854-30.321-10.973c-11.133,2.881-20.096,11.813-24.782,22.314c0.624-16.204-5.162-32.183-18.499-35.741    c-13.339-3.557-28.322,7.264-29.863,20.982c-0.922,8.193-0.733,20.677,5.566,25.997c-7.573-5.854-20.164-7.735-29.462-5.464    c-9.297,2.271-17.289,10.257-18.316,19.771c-1.026,9.516-1.886,27.223,20.956,37.952c-0.41,3.143-2.957,6.381-4.556,6.914    c-14.954,4.985-24.696,13.821-27.189,23.11c10.876-2.719,15.634,1.813,23.438,4.585c-8.903,6.197-24.05,23.418-27.527,33.692    c-3.478,10.275-1.493,22.867,6.794,29.868c6.983,5.901,18.423,5.918,25.076,0.156c0.328-0.337,9.614-9.984,15.72-32.956    c6.004,22.997-15.78,45.428-15.78,58.003c-4.749,45.449,10.678,92.452,42.995,122.344c25.939,23.991,64.34,39.711,92.742,52.75    c15.497,21.274,26.284,44.962,32.037,69.5c-12.247,0.681-24.734,2.112-37.596,4.346c-11.725,2.038-23.374,4.743-34.916,8.051    c4.145-6.447,7.733-15.669,7.733-28.418c0-30.268-20.181-61.294-20.181-61.294S159.2,421.599,159.2,451.868    c0,17.787,6.959,28.74,12.706,34.781c-18.977,6.695-37.586,15.063-55.641,25.023c7.197-12.265,13.61-30.25,13.61-55.416    c0-57.355-33.306-116.145-33.306-116.145s-33.306,58.79-33.306,116.145c0,40.298,16.431,62.174,26.211,71.633    C59.544,547.642,31.5,571.858,6.263,600h45.565c55.995-51.158,129.938-101.075,221.84-103.317    c-79.753,20.844-125.804,63.8-163.23,103.317h56.125c33.049-34.093,72.391-59.837,111.184-75.448    c37.158-14.954,68.651-17.296,89.746-13.425C301,530.293,257.644,563.997,228.852,600h56.055    c42.311-45.429,97.084-73.379,181.799-80.66c-54.694-26.36-101.729-43.791-149.676-49.694c2.36-12.354,3.96-22.059,5.82-28.079    c17.883-57.862,58.889-92.077,82.609-98.218c24.007-5.703,52.437-2.818,70.639,13.842c18.201,16.66,27.441,42.587,23.879,67.004    c15.286-25.03,21.079-55.706,15.97-84.587c-5.109-28.88-21.072-55.707-44.017-73.977c47.43,2.143,80.611,64.738,83.312,113.351    c17.619-35.831,20.329-78.716,7.358-116.479C549.63,224.74,521.142,192.571,485.226,175.128z M281.611,467.433    c-1.398-16.368-5.41-32.823-10.214-48.346c13.618,7.892,21.542,27.114,24.409,48.718    C291.098,467.566,286.368,467.444,281.611,467.433z M257.214,335.92c-35.91-17.948-57.288-61.095-49.814-100.539    c1.361,35.452,25.196,68.365,57.348,83.36c32.153,14.995,71.131,12.702,102.778-3.333    C340.466,345.064,293.126,353.867,257.214,335.92z" fill="#000000" fill-opacity="1"></path></g><path d="M237.46 356.19L237.46 326.75L238.03 319.97L237.78 319.97L235.73 326.30L226.71 345.76L225.11 345.76L215.63 326.30L213.65 319.97L213.39 319.97L214.29 326.75L214.29 356.19L209.68 356.19L209.68 311.39L213.71 311.39L224.53 333.41L226.13 338.65L226.26 338.65L227.79 333.34L238.03 311.39L242.26 311.39L242.26 356.19L237.46 356.19ZM251.35 329.76L249.81 326.11Q251.67 324.96 254.32 324.32Q256.98 323.68 259.92 323.68L259.92 323.68Q262.61 323.68 264.24 324.48Q265.87 325.28 266.80 326.65Q267.73 328.03 268.02 329.79Q268.31 331.55 268.31 333.47L268.31 333.47Q268.31 337.31 268.15 340.96Q267.99 344.61 267.99 347.87L267.99 347.87Q267.99 350.30 268.15 352.38Q268.31 354.46 268.75 356.32L268.75 356.32L265.23 356.32L264.15 352.54L263.89 352.54Q262.93 354.21 261.07 355.42Q259.22 356.64 256.08 356.64L256.08 356.64Q252.63 356.64 250.42 354.24Q248.21 351.84 248.21 347.61L248.21 347.61Q248.21 344.86 249.14 343.01Q250.07 341.15 251.76 340.00Q253.46 338.85 255.79 338.37Q258.13 337.89 261.01 337.89L261.01 337.89Q261.65 337.89 262.29 337.89Q262.93 337.89 263.63 337.95L263.63 337.95Q263.83 335.97 263.83 334.43L263.83 334.43Q263.83 330.78 262.74 329.31Q261.65 327.84 258.77 327.84L258.77 327.84Q256.98 327.84 254.87 328.38Q252.75 328.93 251.35 329.76L251.35 329.76ZM263.70 348.38L263.70 341.60Q263.06 341.53 262.42 341.50Q261.78 341.47 261.14 341.47L261.14 341.47Q259.60 341.47 258.13 341.73Q256.66 341.98 255.51 342.62Q254.35 343.26 253.68 344.35Q253.01 345.44 253.01 347.10L253.01 347.10Q253.01 349.66 254.26 351.07Q255.51 352.48 257.49 352.48L257.49 352.48Q260.18 352.48 261.65 351.20Q263.12 349.92 263.70 348.38L263.70 348.38ZM273.17 356.19L282.26 339.81L273.81 324.19L279.31 324.19L284.05 333.34L285.33 336.93L286.67 333.34L291.54 324.19L296.59 324.19L288.08 339.55L297.11 356.19L291.86 356.19L286.48 346.14L285.07 342.30L283.60 346.14L278.23 356.19L273.17 356.19ZM302.87 356.19L302.87 324.19L307.47 324.19L307.47 356.19L302.87 356.19ZM302.03 314.46L302.03 314.46Q302.03 312.93 302.90 311.97Q303.76 311.01 305.17 311.01L305.17 311.01Q306.58 311.01 307.51 311.93Q308.43 312.86 308.43 314.46L308.43 314.46Q308.43 316.00 307.51 316.86Q306.58 317.73 305.17 317.73L305.17 317.73Q303.76 317.73 302.90 316.83Q302.03 315.93 302.03 314.46ZM316.31 356.19L316.31 311.84Q318.35 311.26 320.66 311.07Q322.96 310.88 325.20 310.88L325.20 310.88Q327.76 310.88 330.26 311.45Q332.75 312.03 334.77 313.57Q336.79 315.10 338.03 317.79Q339.28 320.48 339.28 324.64L339.28 324.64Q339.28 328.67 338.10 331.49Q336.91 334.30 334.96 336.06Q333.01 337.82 330.48 338.62Q327.95 339.42 325.27 339.42L325.27 339.42Q325.01 339.42 324.43 339.42Q323.86 339.42 323.22 339.39Q322.58 339.36 321.97 339.29Q321.36 339.23 321.11 339.17L321.11 339.17L321.11 356.19L316.31 356.19ZM325.46 315.29L325.46 315.29Q324.18 315.29 322.99 315.39Q321.81 315.49 321.11 315.68L321.11 315.68L321.11 334.75Q321.36 334.88 321.91 334.91Q322.45 334.94 323.03 334.97Q323.60 335.01 324.15 335.01Q324.69 335.01 324.95 335.01L324.95 335.01Q326.74 335.01 328.40 334.56Q330.07 334.11 331.35 332.93Q332.63 331.74 333.43 329.73Q334.23 327.71 334.23 324.64L334.23 324.64Q334.23 321.95 333.49 320.16Q332.75 318.37 331.57 317.28Q330.39 316.19 328.79 315.74Q327.19 315.29 325.46 315.29ZM341.59 340.19L341.59 340.19Q341.59 331.55 344.56 327.49Q347.54 323.42 353.04 323.42L353.04 323.42Q358.93 323.42 361.71 327.58Q364.50 331.74 364.50 340.19L364.50 340.19Q364.50 348.89 361.49 352.93Q358.48 356.96 353.04 356.96L353.04 356.96Q347.15 356.96 344.37 352.80Q341.59 348.64 341.59 340.19ZM346.39 340.19L346.39 340.19Q346.39 343.01 346.74 345.31Q347.09 347.61 347.89 349.28Q348.69 350.94 349.97 351.87Q351.25 352.80 353.04 352.80L353.04 352.80Q356.37 352.80 358.03 349.82Q359.70 346.85 359.70 340.19L359.70 340.19Q359.70 337.44 359.35 335.10Q358.99 332.77 358.19 331.10Q357.39 329.44 356.11 328.51Q354.83 327.58 353.04 327.58L353.04 327.58Q349.78 327.58 348.08 330.59Q346.39 333.60 346.39 340.19ZM375.57 311.39L375.57 348.57Q375.57 350.81 376.18 351.77Q376.79 352.73 377.87 352.73L377.87 352.73Q379.22 352.73 381.01 352.03L381.01 352.03L381.46 355.74Q380.63 356.25 379.12 356.57Q377.62 356.89 376.40 356.89L376.40 356.89Q373.97 356.89 372.47 355.39Q370.96 353.89 370.96 350.11L370.96 350.11L370.96 311.39L375.57 311.39ZM390.48 311.39L390.48 348.57Q390.48 350.81 391.09 351.77Q391.70 352.73 392.79 352.73L392.79 352.73Q394.13 352.73 395.92 352.03L395.92 352.03L396.37 355.74Q395.54 356.25 394.03 356.57Q392.53 356.89 391.31 356.89L391.31 356.89Q388.88 356.89 387.38 355.39Q385.87 353.89 385.87 350.11L385.87 350.11L385.87 311.39L390.48 311.39ZM399.06 340.19L399.06 340.19Q399.06 331.55 402.03 327.49Q405.01 323.42 410.51 323.42L410.51 323.42Q416.40 323.42 419.19 327.58Q421.97 331.74 421.97 340.19L421.97 340.19Q421.97 348.89 418.96 352.93Q415.95 356.96 410.51 356.96L410.51 356.96Q404.63 356.96 401.84 352.80Q399.06 348.64 399.06 340.19ZM403.86 340.19L403.86 340.19Q403.86 343.01 404.21 345.31Q404.56 347.61 405.36 349.28Q406.16 350.94 407.44 351.87Q408.72 352.80 410.51 352.80L410.51 352.80Q413.84 352.80 415.51 349.82Q417.17 346.85 417.17 340.19L417.17 340.19Q417.17 337.44 416.82 335.10Q416.47 332.77 415.67 331.10Q414.87 329.44 413.59 328.51Q412.31 327.58 410.51 327.58L410.51 327.58Q407.25 327.58 405.55 330.59Q403.86 333.60 403.86 340.19Z" data-element="company-name" data-text-path="" data-text="MaxiPollo" data-font-family="PT Sans Narrow" fill="#000000" fill-opacity="1"></path></g></g></svg>